<?xml version="1.0" encoding="utf-8"?>
<!-- Generator: Adobe Illustrator 22.1.0, SVG Export Plug-In . SVG Version: 6.00 Build 0)  -->
<svg version="1.1" id="Layer_1" xmlns="http://www.w3.org/2000/svg" xmlns:xlink="http://www.w3.org/1999/xlink" x="0px" y="0px"
	 viewBox="0 0 222.5 69.6" style="enable-background:new 0 0 222.5 69.6;" xml:space="preserve">
<style type="text/css">
	.st0{fill:#474538;}
	.st1{fill:#4A9452;}
	.st2{fill:#70AB52;}
</style>
<path class="st0" d="M74.5,20.5L74.5,20.5V7.6h3v12.9l0,0c0,0.8,0.1,1.6,0.4,2.1l0,0l0,0c0.2,0.6,0.6,1,1,1.4l0,0l0,0
	c0.5,0.3,1,0.6,1.5,0.7l0,0l0,0c0.6,0.1,1.2,0.2,2,0.2l0,0l0,0c1.5,0,2.7-0.3,3.6-1l0,0l0,0c0.8-0.7,1.3-1.8,1.3-3.4l0,0V7.6h3v12.8
	l0,0c0,1-0.1,1.9-0.4,2.7l0,0l0,0c-0.3,0.8-0.7,1.4-1.1,2l0,0l0,0c-0.5,0.5-1,1-1.7,1.3l0,0l0,0c-0.7,0.3-1.4,0.6-2.1,0.7l0,0l0,0
	c-0.7,0.2-1.5,0.2-2.4,0.2l0,0l0,0c-0.8,0-1.6-0.1-2.4-0.2l0,0l0,0c-0.8-0.2-1.5-0.4-2.1-0.7l0,0l0,0c-0.7-0.3-1.3-0.8-1.7-1.3l0,0
	l0,0c-0.5-0.5-0.9-1.2-1.2-2l0,0l0,0C74.6,22.4,74.5,21.5,74.5,20.5z"/>
<path class="st0" d="M121.9,26.9H119v-10l0,0c0-0.9,0-1.7-0.1-2.4l0,0l0,0c0-0.6-0.1-1.3-0.3-1.9l0,0l0,0c-0.1-0.7-0.4-1.2-0.6-1.6
	l0,0l0,0c-0.3-0.4-0.6-0.7-1.1-0.9l0,0l0,0c-0.5-0.2-1-0.4-1.7-0.4l0,0l0,0c-1.3,0-2.4,0.3-3.3,1l0,0l0,0c-0.9,0.7-1.6,1.7-1.9,2.9
	l0,0l0,0c-0.1,0.8-0.2,1.7-0.2,2.7l0,0v10.5h-2.9V16.6l0,0c0-0.9,0-1.6-0.1-2.3l0,0l0,0c-0.1-0.6-0.2-1.3-0.3-1.9l0,0l0,0
	c-0.2-0.6-0.4-1.1-0.7-1.5l0,0l0,0c-0.3-0.4-0.6-0.7-1.1-0.9l0,0l0,0c-0.5-0.2-1-0.3-1.6-0.3l0,0l0,0c-1.4,0-2.6,0.4-3.5,1.1l0,0
	l0,0c-1,0.7-1.6,1.7-1.9,2.8l0,0l0,0c-0.1,0.9-0.2,1.9-0.2,2.9l0,0v10.3h-2.9l0,0c0-12.1,0-18.5,0-19.3l0,0h2.5l0.4,2.8l0,0
	c0.6-0.9,1.4-1.6,2.5-2.2l0,0l0,0c1.1-0.6,2.3-0.9,3.7-0.9l0,0l0,0c0.7,0,1.4,0.1,2,0.2l0,0l0,0c0.6,0.1,1.1,0.3,1.5,0.6l0,0l0,0
	c0.4,0.2,0.8,0.5,1.1,0.8l0,0l0,0c0.3,0.3,0.6,0.6,0.7,0.9l0,0l0,0c0.2,0.3,0.3,0.6,0.4,0.9l0,0l0,0c1.4-2.3,3.6-3.4,6.5-3.4l0,0
	l0,0c2.1,0,3.7,0.6,4.7,1.8l0,0l0,0c1,1.2,1.5,3,1.5,5.4l0,0V26.9L121.9,26.9z"/>
<path class="st0" d="M141.9,12.1c-0.6-1.5-1.5-2.7-2.8-3.5c-1.2-0.9-2.7-1.3-4.4-1.3c-1.2,0-2.4,0.3-3.5,0.8c-1.1,0.6-2,1.3-2.6,2.3
	c0-1.1,0.1-2.5,0.1-4V0l-2.9,0.2v26.8h2.5l0.3-2.7c0.7,1,1.6,1.7,2.6,2.2c1.1,0.6,2.2,0.8,3.5,0.8c1.7,0,3.2-0.4,4.5-1.3
	c1.2-0.9,2.2-2.1,2.8-3.6c0.6-1.5,0.9-3.3,0.9-5.2C142.9,15.3,142.5,13.6,141.9,12.1z M139.5,20.3c-0.2,0.9-0.5,1.7-0.9,2.4
	c-0.4,0.7-1,1.3-1.7,1.7c-0.7,0.4-1.5,0.6-2.5,0.6c-1.9,0-3.4-0.6-4.3-1.9c-1-1.3-1.4-3.2-1.4-5.7c0-2.5,0.5-4.4,1.5-5.6
	c1-1.3,2.4-1.9,4.3-1.9c1.3,0,2.3,0.3,3.1,1c0.8,0.7,1.4,1.6,1.8,2.7c0.3,1.1,0.5,2.4,0.5,3.9C139.8,18.4,139.7,19.4,139.5,20.3z"/>
<path class="st0" d="M155.6,7.5L155.6,7.5L155.6,7.5c0.5,0,1,0,1.4,0.1l0,0l-0.1,2.7l0,0c-0.5-0.1-1-0.1-1.4-0.1l0,0l0,0
	c-1.6,0-3,0.6-4,1.7l0,0l0,0c-1,1.1-1.5,2.6-1.5,4.2l0,0v10.8h-2.9l0,0c0-11.8,0-18.3,0-19.3l0,0h2.4l0.3,3.5l0,0
	c0.7-1.1,1.5-2,2.5-2.6l0,0l0,0C153.4,7.8,154.5,7.5,155.6,7.5z"/>
<path class="st0" d="M173.4,9.7c-1.4-1.6-3.3-2.4-5.7-2.4c-1.3,0-2.4,0.3-3.4,0.7c-1,0.5-1.9,1.2-2.7,2.1c-1.6,1.9-2.3,4.3-2.3,7.3
	c0,3.1,0.8,5.5,2.4,7.3c1.6,1.8,3.8,2.7,6.6,2.7c2.5,0,4.7-0.6,6.7-1.8l-0.5-2.4c-2,1.1-4.1,1.6-6.1,1.6c-1.8,0-3.3-0.6-4.4-1.8
	c-1.1-1.2-1.7-2.9-1.7-5.1h13.2c0-0.2,0-0.4,0-0.8c0-0.4,0-0.6,0-0.8C175.5,13.5,174.8,11.3,173.4,9.7z M162.3,15.6
	c0.2-1.8,0.7-3.3,1.7-4.4s2.2-1.6,3.7-1.6s2.7,0.5,3.5,1.5c0.9,1,1.3,2.5,1.3,4.4H162.3z"/>
<path class="st0" d="M184.8,27.3L184.8,27.3L184.8,27.3c-1.9,0-3.2-0.5-4-1.5l0,0l0,0c-0.8-1-1.2-2.8-1.2-5.3l0,0V0.2l2.9-0.2v19.4
	l0,0c0,0.8,0,1.4,0,1.9l0,0l0,0c0,0.5,0.1,1,0.1,1.4l0,0l0,0c0.1,0.5,0.2,0.8,0.3,1l0,0l0,0c0.1,0.2,0.3,0.4,0.5,0.6l0,0l0,0
	c0.2,0.2,0.5,0.3,0.8,0.4l0,0l0,0c0.3,0.1,0.7,0.1,1.2,0.1l0,0l0,0c0.4,0,1.1-0.1,2.2-0.2l0,0l0.2,2.3l0,0
	C186.6,27.2,185.6,27.3,184.8,27.3z"/>
<path class="st0" d="M194.8,27.3L194.8,27.3L194.8,27.3c-1.9,0-3.2-0.5-4-1.5l0,0l0,0c-0.8-1-1.2-2.8-1.2-5.3l0,0V0.2l2.9-0.2v19.4
	l0,0c0,0.8,0,1.4,0,1.9l0,0l0,0c0,0.5,0.1,1,0.1,1.4l0,0l0,0c0.1,0.5,0.2,0.8,0.3,1l0,0l0,0c0.1,0.2,0.3,0.4,0.5,0.6l0,0l0,0
	c0.2,0.2,0.5,0.3,0.8,0.4l0,0l0,0c0.3,0.1,0.7,0.1,1.2,0.1l0,0l0,0c0.4,0,1.1-0.1,2.2-0.2l0,0l0.2,2.3l0,0
	C196.6,27.2,195.6,27.3,194.8,27.3z"/>
<path class="st0" d="M212.2,8.8c-1.1-1-2.8-1.6-5.2-1.6c-1.2,0-2.4,0.1-3.6,0.4c-1.2,0.3-2.2,0.7-3,1.1c0,0,0.1,0.4,0.4,1
	c0.2,0.7,0.4,1.1,0.5,1.2c1.9-0.9,3.9-1.4,5.8-1.4c1.4,0,2.4,0.3,3,1c0.6,0.6,1,1.7,1,3v1.7c-0.4,0-1,0.1-1.8,0.1
	c-0.8,0.1-1.4,0.1-1.8,0.1c-2.8,0.2-5,0.8-6.5,1.8c-1.5,1-2.2,2.4-2.2,4.4c0,1.8,0.5,3.1,1.6,4.1c1.1,0.9,2.5,1.4,4.3,1.4
	c1.3,0,2.4-0.2,3.3-0.6c0.9-0.4,1.9-1.2,3-2.2c0.2,0.9,0.3,1.7,0.5,2.4h2.3V14.2C213.8,11.7,213.3,9.9,212.2,8.8z M210.9,20.7
	c-0.3,1.3-1,2.3-2,3.1c-1.1,0.8-2.3,1.2-3.7,1.2c-1.1,0-1.9-0.3-2.5-0.8c-0.6-0.5-0.9-1.3-0.9-2.3c0-1.3,0.5-2.3,1.5-2.9
	c1-0.6,2.8-1,5.3-1.2c0.2,0,0.6,0,1.3-0.1c0.6-0.1,1-0.1,1.1-0.1V20.7z"/>
<path class="st0" d="M80.9,66.3L80.9,66.3L80.9,66.3c-1.3,0-2.5-0.1-3.6-0.4l0,0l0,0c-1.1-0.3-2-0.6-2.7-1.1l0,0l0.4-2.5l0,0
	c2,1,3.9,1.6,5.8,1.6l0,0l0,0c2.9,0,4.3-1,4.4-3l0,0l0,0c0-0.9-0.3-1.5-0.9-2l0,0l0,0c-0.6-0.5-1.8-1-3.6-1.7l0,0l-1.5-0.5l0,0
	c-1.7-0.6-2.9-1.3-3.6-2.1l0,0l0,0c-0.7-0.8-1.1-1.9-1.1-3.1l0,0l0,0c0-1.5,0.6-2.8,1.8-3.8l0,0l0,0c1.2-1,2.9-1.5,5-1.5l0,0l0,0
	c2.2,0,4.2,0.4,6,1.3l0,0l-0.9,2.2l0,0c-1.8-0.8-3.5-1.1-5.1-1.1l0,0l0,0c-1.2,0-2.2,0.2-2.9,0.7l0,0l0,0c-0.7,0.5-1,1.2-1,2l0,0
	l0,0c0,0.8,0.3,1.3,0.8,1.7l0,0l0,0c0.5,0.4,1.5,0.9,3,1.4l0,0l0,0c0.4,0.1,0.9,0.3,1.5,0.5l0,0l0,0c1.9,0.6,3.3,1.4,4.1,2.2l0,0
	l0,0c0.8,0.9,1.2,2,1.2,3.5l0,0l0,0c0,1.8-0.7,3.2-1.9,4.1l0,0l0,0C84.7,65.8,83,66.3,80.9,66.3z"/>
<path class="st0" d="M100,66.3L100,66.3L100,66.3c-2.8,0-5.1-0.9-6.7-2.8l0,0l0,0c-1.6-1.8-2.4-4.2-2.4-7.2l0,0l0,0
	c0-3,0.8-5.4,2.5-7.3l0,0l0,0c1.6-1.9,3.8-2.8,6.7-2.8l0,0l0,0c1,0,2,0.1,2.9,0.4l0,0l0,0c0.9,0.2,1.7,0.6,2.2,1l0,0l-0.8,2.3l0,0
	c-1.4-0.7-2.8-1.1-4.3-1.1l0,0l0,0c-1.9,0-3.3,0.7-4.4,2l0,0l0,0C94.6,52.2,94,54,94,56.4l0,0l0,0c0,2.3,0.5,4.1,1.6,5.5l0,0l0,0
	c1.1,1.3,2.6,2,4.5,2l0,0l0,0c1.5,0,3.1-0.4,4.6-1.2l0,0l0.4,2.3l0,0C103.8,65.9,102.1,66.3,100,66.3z"/>
<polygon class="st0" points="109.4,46.6 112.4,46.6 112.4,65.9 109.4,65.9 109.4,46.6 "/>
<polygon class="st0" points="109.4,39.6 112.4,39.6 112.4,43.1 109.4,43.1 109.4,39.6 "/>
<path class="st0" d="M123.6,66.3L123.6,66.3L123.6,66.3c-1.3,0-2.5-0.1-3.6-0.4l0,0l0,0c-1.1-0.3-2-0.6-2.7-1.1l0,0l0.4-2.5l0,0
	c2,1,3.9,1.6,5.8,1.6l0,0l0,0c2.9,0,4.3-1,4.4-3l0,0l0,0c0-0.9-0.3-1.5-0.9-2l0,0l0,0c-0.6-0.5-1.8-1-3.6-1.7l0,0l-1.5-0.5l0,0
	c-1.7-0.6-2.9-1.3-3.6-2.1l0,0l0,0c-0.7-0.8-1.1-1.9-1.1-3.1l0,0l0,0c0-1.5,0.6-2.8,1.8-3.8l0,0l0,0c1.2-1,2.9-1.5,5-1.5l0,0l0,0
	c2.2,0,4.2,0.4,6,1.3l0,0l-0.9,2.2l0,0c-1.8-0.8-3.5-1.1-5.1-1.1l0,0l0,0c-1.2,0-2.2,0.2-2.9,0.7l0,0l0,0c-0.7,0.5-1,1.2-1,2l0,0
	l0,0c0,0.8,0.3,1.3,0.8,1.7l0,0l0,0c0.5,0.4,1.5,0.9,3,1.4l0,0l0,0c0.4,0.1,0.9,0.3,1.5,0.5l0,0l0,0c1.9,0.6,3.3,1.4,4.1,2.2l0,0
	l0,0c0.8,0.9,1.2,2,1.2,3.5l0,0l0,0c0,1.8-0.7,3.2-1.9,4.1l0,0l0,0C127.5,65.8,125.8,66.3,123.6,66.3z"/>
<path class="st0" d="M147.9,48.7c-1.4-1.6-3.3-2.4-5.7-2.4c-1.3,0-2.4,0.3-3.5,0.7c-1,0.5-1.9,1.2-2.7,2.1c-1.6,1.9-2.3,4.3-2.3,7.3
	c0,3.1,0.8,5.5,2.4,7.3c1.6,1.8,3.8,2.7,6.6,2.7c2.5,0,4.7-0.6,6.7-1.8l-0.5-2.4c-2.1,1.1-4.1,1.6-6.1,1.6c-1.9,0-3.3-0.6-4.4-1.8
	c-1.1-1.2-1.7-2.9-1.7-5.1H150c0-0.2,0-0.4,0-0.8v-0.8C150,52.5,149.3,50.3,147.9,48.7z M136.9,54.6c0.2-1.8,0.7-3.3,1.7-4.4
	c1-1.1,2.2-1.6,3.7-1.6s2.7,0.5,3.5,1.5c0.9,1,1.3,2.5,1.3,4.4H136.9z"/>
<path class="st0" d="M166.8,47.8c-1.1-1-2.8-1.6-5.2-1.6c-1.2,0-2.4,0.1-3.6,0.4c-1.2,0.3-2.2,0.7-3,1.1c0,0,0.1,0.4,0.4,1
	c0.2,0.7,0.4,1.1,0.5,1.2c1.9-0.9,3.8-1.4,5.7-1.4c1.4,0,2.4,0.3,3,1c0.6,0.6,1,1.7,1,3v1.7c-0.4,0-1,0.1-1.8,0.1
	c-0.8,0.1-1.4,0.1-1.8,0.1c-2.8,0.2-5,0.8-6.5,1.8c-1.5,1-2.2,2.4-2.2,4.4c0,1.8,0.5,3.1,1.6,4.1c1.1,0.9,2.5,1.4,4.4,1.4
	c1.3,0,2.4-0.2,3.3-0.6c0.9-0.4,1.9-1.2,3-2.2c0.2,0.9,0.3,1.7,0.5,2.4h2.3V53.2C168.3,50.7,167.8,48.9,166.8,47.8z M165.4,59.7
	c-0.3,1.3-1,2.3-2,3.1c-1.1,0.8-2.3,1.2-3.7,1.2c-1.1,0-1.9-0.3-2.5-0.8c-0.6-0.5-0.9-1.3-0.9-2.3c0-1.3,0.5-2.3,1.5-2.9
	s2.8-1,5.3-1.2c0.2,0,0.6,0,1.3-0.1c0.7-0.1,1-0.1,1.1-0.1V59.7z"/>
<path class="st0" d="M182.1,46.5L182.1,46.5L182.1,46.5c0.5,0,1,0,1.4,0.1l0,0l-0.1,2.7l0,0c-0.5-0.1-1-0.1-1.4-0.1l0,0l0,0
	c-1.6,0-3,0.6-4,1.7l0,0l0,0c-1,1.1-1.5,2.6-1.5,4.2l0,0v10.8h-2.9l0,0c0-11.8,0-18.3,0-19.3l0,0h2.4l0.3,3.5l0,0
	c0.7-1.1,1.5-2,2.5-2.6l0,0l0,0C179.8,46.8,180.9,46.5,182.1,46.5z"/>
<path class="st0" d="M194.7,66.3L194.7,66.3L194.7,66.3c-2.8,0-5.1-0.9-6.7-2.8l0,0l0,0c-1.6-1.8-2.4-4.2-2.4-7.2l0,0l0,0
	c0-3,0.8-5.4,2.5-7.3l0,0l0,0c1.6-1.9,3.8-2.8,6.7-2.8l0,0l0,0c1,0,2,0.1,2.9,0.4l0,0l0,0c0.9,0.2,1.7,0.6,2.2,1l0,0l-0.8,2.3l0,0
	c-1.4-0.7-2.8-1.1-4.3-1.1l0,0l0,0c-1.9,0-3.3,0.7-4.4,2l0,0l0,0c-1.1,1.4-1.6,3.2-1.6,5.6l0,0l0,0c0,2.3,0.5,4.1,1.6,5.5l0,0l0,0
	c1.1,1.3,2.6,2,4.5,2l0,0l0,0c1.5,0,3.1-0.4,4.6-1.2l0,0l0.4,2.3l0,0C198.5,65.9,196.8,66.3,194.7,66.3z"/>
<path class="st0" d="M219.5,65.9h-2.9V54.3l0,0c0-1.9-0.3-3.3-0.9-4.2l0,0l0,0c-0.6-0.9-1.7-1.3-3.2-1.3l0,0l0,0
	c-1.5,0-2.7,0.4-3.7,1.1l0,0l0,0c-1,0.7-1.7,1.7-2,2.9l0,0l0,0c-0.1,0.9-0.2,1.9-0.2,2.9l0,0v10.3h-2.9V39.2l2.9-0.2v7.8l0,0
	c0,0.7,0,1.5-0.1,2.5l0,0l0,0c1.7-2,3.8-3.1,6.6-3.1l0,0l0,0c4.3,0,6.5,2.5,6.5,7.6l0,0V65.9L219.5,65.9z"/>
<g>
	<rect x="74.6" y="33.7" class="st1" width="148" height="2"/>
</g>
<polygon class="st0" points="58.4,67.6 55,69.6 48.2,58.3 48.7,58 17.9,6.7 20.1,5.4 51,56.6 51.5,56.3 "/>
<path class="st1" d="M16.8,51.1c-5-0.1-9.2,1.1-12.7,3.4C-5,39.4,1.7,18.6,19.1,7.8C7.8,15.2,6.8,34.4,16.8,51.1z"/>
<path class="st2" d="M34.2,31.3c7.2-4.5,15.7-6.5,25.5-6c2.6-4.6,5.6-7.8,9-9.6C59.5,0.5,37.8-3.2,20,7.2L34.2,31.3L34.2,31.3z"/>
<path class="st2" d="M39.4,39.8C39.3,39.9,39.3,39.9,39.4,39.8c-7.9,1.6-15.4,5.3-22.5,11.3c-10.1-16.7-9-35.9,2.3-43.3
	c0.2-0.1,0.4-0.3,0.6-0.4c0.1-0.1,0.2-0.1,0.3-0.2h0L39.4,39.8z"/>
<path class="st1" d="M39.4,39.8c6.8-7.3,13.6-12.2,20.3-14.5C49.5,8.5,31.9,0.5,20,7.2L39.4,39.8L39.4,39.8z"/>
</svg>
